<svg xmlns:mydata="http://www.w3.org/2000/svg" mydata:contrastcolor="ffffff"
  mydata:template="Contrast" mydata:presentation="2.5" mydata:layouttype="undefined"
  mydata:specialfontid="undefined" mydata:id1="374" mydata:id2="014" mydata:companyname="Dev Diary"
  mydata:companytagline="" version="1.1" xmlns="http://www.w3.org/2000/svg"
  xmlns:xlink="http://www.w3.org/1999/xlink" viewBox="0 0 550 470">
  <g fill="#fff" fill-rule="none" stroke="none" stroke-width="1" stroke-linecap="butt"
    stroke-linejoin="miter" stroke-miterlimit="10" stroke-dasharray="" stroke-dashoffset="0"
    font-family="none" font-weight="none" font-size="none" text-anchor="none"
    style="mix-blend-mode: normal">
    <g
      data-paper-data="{&quot;isGlobalGroup&quot;:true,&quot;bounds&quot;:{&quot;x&quot;:146.00027152397564,&quot;y&quot;:105.99999999999999,&quot;width&quot;:257.99945695204866,&quot;height&quot;:258}}">
      <g
        data-paper-data="{&quot;fillRule&quot;:&quot;evenodd&quot;,&quot;fillRuleOriginal&quot;:&quot;evenodd&quot;,&quot;isIcon&quot;:true,&quot;iconStyle&quot;:&quot;standalone&quot;,&quot;selectedEffects&quot;:{&quot;container&quot;:&quot;enclosed_circle_outline3&quot;,&quot;transformation&quot;:&quot;&quot;,&quot;pattern&quot;:&quot;&quot;},&quot;bounds&quot;:{&quot;x&quot;:204.05128295078504,&quot;y&quot;:162.5934707254005,&quot;width&quot;:141.8974087561922,&quot;height&quot;:144.81278702522332},&quot;widthRatioIconToContainer&quot;:0.9302318675416841,&quot;heightRatioIconToContainer&quot;:1,&quot;relativeBoundsIconToContainer&quot;:{&quot;top&quot;:0,&quot;left&quot;:0.007527075836574973},&quot;iconType&quot;:&quot;icon&quot;,&quot;rawIconId&quot;:&quot;2602678&quot;,&quot;isDetailed&quot;:false,&quot;blockLetter&quot;:&quot;O&quot;,&quot;suitableAsStandaloneIcon&quot;:true}"
        fill-rule="evenodd">
        <path
          d="M297.42687,162.59347l-17.08705,67.70745h61.72699l-89.49345,77.10534l17.08705,-68.56181h-59.5911zM282.26211,186.94252l-49.55246,43.3584h38.65946zM318.99928,238.84445h-40.79534l-10.893,44.63993zM224.83171,184.83148c6.54554,-6.54554 14.06255,-11.61347 22.55105,-15.2038c8.78979,-3.71776 17.99563,-5.57664 27.61752,-5.57664c4.36412,0 8.64267,0.38242 12.83565,1.14726l-5.4076,4.72004c-2.44522,-0.27313 -4.92124,-0.4097 -7.42805,-0.4097c-8.88411,0 -17.38127,1.71518 -25.49149,5.14554c-7.83493,3.31389 -14.77425,7.9927 -20.81797,14.03643c-6.04373,6.04373 -10.72254,12.98305 -14.03644,20.81797c-3.24377,7.66913 -4.95386,15.6842 -5.13028,24.04522l-2.31162,2.01794l-0.33216,0.32229l-0.29592,0.35617l-0.25633,0.38576l-0.21381,0.41102l-0.16887,0.43135l-0.12201,0.44676l-0.07377,0.45662l-0.02468,0.46279l0.00523,0.21322l0.01569,0.2126l0.0261,0.21136l0.03645,0.21013l0.04672,0.20828l0.05687,0.2052l0.06688,0.20274l0.07674,0.19904l0.08641,0.19473l0.09587,0.19041l0.10511,0.18548l0.11408,0.18055l0.12278,0.17439l0.13119,0.16761l0.13927,0.16145l0.14704,0.15467l0.15444,0.14727l0.16147,0.13927l0.1681,0.13126l0.17433,0.12263l0.18015,0.114l0.18553,0.10476l0.19047,0.09613l0.19494,0.08627l0.19895,0.07703l0.20247,0.06655l0.20551,0.05731l0.20805,0.04622l0.21009,0.03697l0.21163,0.02588l0.21266,0.01541l0.15177,0.00395c0.7356,5.95137 2.28442,11.71936 4.64647,17.30396c3.3139,7.83509 7.99271,14.77439 14.03644,20.81792c6.04377,6.04393 12.9831,10.72272 20.81797,14.03636c0.48051,0.20324 0.96238,0.40046 1.44562,0.59165l-1.19573,4.79785l-0.13488,0.54121c-0.74999,-0.28807 -1.497,-0.58946 -2.24104,-0.90417c-8.48853,-3.59054 -16.00555,-8.65836 -22.55105,-15.2035c-6.54552,-6.54554 -11.61346,-14.06265 -15.2038,-22.55136c-3.71776,-8.78982 -5.57663,-17.99561 -5.57663,-27.61734c0,-9.62177 1.85887,-18.82755 5.57663,-27.61734c3.59035,-8.48853 8.65828,-16.00555 15.2038,-22.55105zM302.61762,169.62767c8.48829,3.59037 16.0052,8.65831 22.55074,15.2038c6.54554,6.54554 11.61357,14.06255 15.20411,22.55105c2.77494,6.56116 4.51419,13.35414 5.21776,20.37894l-0.03407,-0.04845l-0.13126,-0.16823l-0.13927,-0.16145l-0.14666,-0.15406l-0.15467,-0.14727l-0.16145,-0.13927l-0.16823,-0.13126l-0.17439,-0.12263l-0.17994,-0.114l-0.18548,-0.10537l-0.19041,-0.09613l-0.19535,-0.08627l-0.19842,-0.07641l-0.20274,-0.06717l-0.2052,-0.05669l-0.20828,-0.04683l-0.21013,-0.03636l-0.21136,-0.02588l-0.21322,-0.01602l-0.2126,-0.00493h-2.18625c-0.7746,-5.64899 -2.28624,-11.13172 -4.53491,-16.44821c-3.31406,-7.83497 -7.99285,-14.77429 -14.03636,-20.81797c-6.04393,-6.04373 -12.98323,-10.72253 -20.81792,-14.03643c-0.49044,-0.20744 -0.98229,-0.4086 -1.47557,-0.6035l0.14267,-0.56536l0.35433,-1.40419l0.70866,-2.8082l0.14007,-0.55505c0.75496,0.28978 1.50689,0.59304 2.25581,0.90981zM345.94869,234.99986c0,9.62173 -1.85874,18.82751 -5.57622,27.61734c-3.59054,8.4887 -8.65857,16.00582 -15.20411,22.55136c-6.54554,6.54554 -14.06245,11.61337 -22.55074,15.2035c-8.78982,3.71789 -17.99561,5.57683 -27.61734,5.57683c-4.33905,0 -8.59349,-0.37803 -12.76332,-1.13411l4.13553,-3.56305l1.34043,-1.15487c2.39948,0.26275 4.8286,0.39412 7.28736,0.39412c8.8839,0 17.38102,-1.71516 25.49137,-5.14547c7.83468,-3.31406 14.77399,-7.99285 20.81792,-14.03636c6.04352,-6.04393 10.72231,-12.98323 14.03636,-20.81792c3.11628,-7.36785 4.81706,-15.0549 5.10235,-23.06117l1.49196,-1.28546l1.86522,-1.60691l1.09688,-0.94529l0.33707,-0.32352l0.29949,-0.35741l0.26005,-0.38699l0.10167,-0.19382c0.03205,0.88615 0.04806,1.77588 0.04806,2.6692z"
          data-paper-data="{&quot;isPathIcon&quot;:true}"></path>
      </g>
      <g data-paper-data="{&quot;isPrimaryText&quot;:true}" fill-rule="nonzero">
        <path
          d="M171.08894,198.0856l3.51224,-7.56799c0.80059,-1.72506 1.76914,-3.18054 2.90565,-4.36644c1.13785,-1.1402 2.37146,-1.97669 3.70085,-2.50949c1.25652,-0.52152 2.63596,-0.74928 4.13833,-0.68328c1.45666,0.06733 2.91768,0.44104 4.38305,1.1211l0.05565,0.02583c1.48392,0.68868 2.72178,1.5675 3.71359,2.63648c0.51015,0.55237 0.94561,1.13208 1.30639,1.73913c0.36078,0.60705 0.66113,1.25931 0.90103,1.9568c0.47848,1.34926 0.64101,2.84497 0.48759,4.48712c-0.11765,1.61366 -0.58968,3.31084 -1.4161,5.09155l-3.46059,7.4567zM189.90011,197.48245c0.74893,-1.61376 0.91065,-3.12807 0.48516,-4.54292c-0.4341,-1.3963 -1.46731,-2.47322 -3.09962,-3.23077l-0.05565,-0.02583c-1.61376,-0.74893 -3.09394,-0.83846 -4.44054,-0.26856c-1.35521,0.58844 -2.40728,1.68954 -3.15621,3.3033l-1.03301,2.22588l10.26687,4.76477z"
          data-paper-data="{&quot;glyphName&quot;:&quot;D&quot;,&quot;glyphIndex&quot;:0,&quot;firstGlyphOfWord&quot;:true,&quot;word&quot;:1}"></path>
        <path
          d="M187.65051,167.78391l11.67282,-12.89299l3.88836,3.52037l-7.69953,8.50437l2.52402,2.28515l6.97898,-7.70851l3.61549,3.27333l-6.97898,7.70851l2.61498,2.3675l7.80246,-8.61806l3.88836,3.52037l-11.77575,13.00668z"
          data-paper-data="{&quot;glyphName&quot;:&quot;E&quot;,&quot;glyphIndex&quot;:1,&quot;word&quot;:1}"></path>
        <path
          d="M210.92815,145.28372l5.84385,-3.31288l10.35423,8.37518l-1.81528,-13.21593l5.73711,-3.25237l3.44151,23.85927l-4.85653,2.75317z"
          data-paper-data="{&quot;glyphName&quot;:&quot;V&quot;,&quot;glyphIndex&quot;:2,&quot;lastGlyphOfWord&quot;:true,&quot;word&quot;:1}"></path>
        <path
          d="M261.6927,125.54011l8.34007,-0.23163c1.90104,-0.0528 3.63572,0.16497 5.20402,0.6533c1.52799,0.50991 2.82686,1.24097 3.89662,2.1932c1.02717,0.89204 1.84624,2.02512 2.4572,3.39924c0.58938,1.3338 0.9065,2.80813 0.95135,4.423l0.0017,0.06132c0.04542,1.63531 -0.1891,3.13519 -0.70355,4.49964c-0.26688,0.70295 -0.59153,1.35125 -0.97395,1.9449c-0.38243,0.59365 -0.83228,1.15337 -1.34956,1.67916c-0.99425,1.03001 -2.26048,1.84255 -3.79869,2.43761c-1.49676,0.61437 -3.22633,0.9488 -5.1887,1.0033l-8.21742,0.22822zM270.62207,142.10786c1.7784,-0.04939 3.20589,-0.58001 4.28247,-1.59185c1.05614,-1.01127 1.55923,-2.41633 1.50927,-4.21517l-0.0017,-0.06132c-0.04939,-1.7784 -0.62941,-3.14314 -1.74005,-4.09424c-1.13108,-0.95053 -2.58582,-1.4011 -4.36422,-1.35171l-2.45296,0.06813l0.31423,11.31428z"
          data-paper-data="{&quot;glyphName&quot;:&quot;D&quot;,&quot;glyphIndex&quot;:3,&quot;firstGlyphOfWord&quot;:true,&quot;word&quot;:2}"></path>
        <path d="M295.58582,126.61826l5.90421,1.28649l-4.74762,21.78863l-5.90421,-1.28649z"
          data-paper-data="{&quot;glyphName&quot;:&quot;I&quot;,&quot;glyphIndex&quot;:4,&quot;word&quot;:2}"></path>
        <path
          d="M322.78855,136.16838l5.15055,2.66104l-2.13077,24.17204l-5.69558,-2.94263l0.41326,-4.27484l-7.41243,-3.82964l-3.19292,2.83873l-5.61383,-2.90039zM321.19633,150.74428l0.7616,-6.75337l-5.0946,4.51471z"
          data-paper-data="{&quot;glyphName&quot;:&quot;A&quot;,&quot;glyphIndex&quot;:5,&quot;word&quot;:2}"></path>
        <path
          d="M344.88483,181.48666l-4.54682,-4.73446l1.7564,-7.47065l-2.52837,-2.63272l-4.62385,4.44059l-3.56947,-3.71677l16.0839,-15.44644l0.16997,0.17699l3.39949,3.53979l4.01565,4.18137l0.04249,0.04425c0.6374,0.66371 1.09574,1.42142 1.37501,2.27314c0.27927,0.85172 0.38815,1.7253 0.32666,2.62074c-0.06149,0.89545 -0.29632,1.78016 -0.70448,2.65413c-0.40816,0.87397 -0.98097,1.66508 -1.71843,2.3733c-1.06194,1.01985 -2.26865,1.68966 -3.62015,2.00944c-1.3515,0.31978 -2.63064,0.27946 -3.83741,-0.12097zM346.44859,166.37579c0.48159,0.50147 1.07688,0.74491 1.78585,0.73032c0.70897,-0.01459 1.32894,-0.27685 1.85991,-0.78677c0.54572,-0.52409 0.84019,-1.14003 0.88343,-1.84783c0.04324,-0.7078 -0.17594,-1.31243 -0.65754,-1.8139l-3.16578,-3.29643l-3.87164,3.71819z"
          data-paper-data="{&quot;glyphName&quot;:&quot;R&quot;,&quot;glyphIndex&quot;:6,&quot;word&quot;:2}"></path>
        <path
          d="M359.97187,190.55861l9.24911,-12.82764l2.93995,6.17624l-5.42785,7.5096l9.26428,0.54997l2.88721,6.06545l-15.9095,-1.02175l-7.58874,3.61231l-3.0586,-6.4255z"
          data-paper-data="{&quot;glyphName&quot;:&quot;Y&quot;,&quot;glyphIndex&quot;:7,&quot;lastGlyphOfWord&quot;:true,&quot;word&quot;:2}"></path>
      </g>
      <g data-paper-data="{&quot;isContainerElementsWrapper&quot;:true}" fill-rule="evenodd">
        <path
          d="M183.78347,143.78319c-11.90071,11.90067 -21.11509,25.56807 -27.64313,41.0022c-6.76004,15.98244 -10.14006,32.7206 -10.14006,50.21447c0,17.49338 3.38002,34.23163 10.14006,50.21474c6.52822,15.43403 15.7426,29.10134 27.64313,41.00193c11.90112,11.9012 25.56849,21.11551 41.00211,27.64295c15.9822,6.76034 32.72039,10.14052 50.21456,10.14052c17.49363,0 34.23199,-3.38017 50.2151,-10.14052c15.43403,-6.52864 29.10103,-15.74296 41.00103,-27.64295c11.9012,-11.90059 21.11551,-25.5679 27.64295,-41.00193c6.76034,-15.9825 10.14052,-32.72075 10.14052,-50.21474c0,-17.49351 -3.38017,-34.23166 -10.14052,-50.21447c-6.52744,-15.43442 -15.74175,-29.10183 -27.64295,-41.0022c-11.89999,-11.90065 -25.567,-21.11503 -41.00103,-27.64313c-15.98311,-6.76004 -32.72147,-10.14006 -50.2151,-10.14006c-17.49369,0 -34.23184,3.38002 -50.21447,10.14006c-15.43413,6.52804 -29.10154,15.74242 -41.0022,27.64313zM147.7268,234.99986c0,-17.2603 3.33453,-33.77429 10.00358,-49.54199c6.44061,-15.22729 15.5319,-28.71192 27.27386,-40.4539c11.74196,-11.7419 25.22659,-20.83319 40.4539,-27.27386c15.76752,-6.66905 32.28152,-10.00358 49.54199,-10.00358c17.26072,0 33.77463,3.33453 49.54172,10.00358c15.22827,6.44085 28.71306,15.53214 40.45436,27.27386c11.74251,11.74253 20.83373,25.22716 27.27368,40.4539c6.66863,15.76722 10.00294,32.28121 10.00294,49.54199c0,17.25987 -3.33431,33.77366 -10.00294,49.54136c-6.44055,15.22827 -15.53177,28.71336 -27.27368,40.45526c-11.74251,11.7413 -25.22729,20.83253 -40.45436,27.27368c-15.7671,6.66863 -32.281,10.00294 -49.54172,10.00294c-17.26012,0 -33.77408,-3.33431 -49.5419,-10.00294c-15.22779,-6.44115 -28.71245,-15.53238 -40.454,-27.27368c-11.74202,-11.74251 -20.83331,-25.22759 -27.27386,-40.45526c-6.66905,-15.7677 -10.00358,-32.28149 -10.00358,-49.54136z"
          data-paper-data="{&quot;isAdditionalOutlinePath&quot;:true}"></path>
        <path
          d="M186.88925,146.88898c-11.49693,11.49687 -20.39818,24.69933 -26.70375,39.60738c-6.5287,15.43572 -9.79306,31.60355 -9.79306,48.5035c0,16.90026 3.26435,33.068 9.79306,48.50323c6.30551,14.90848 15.20676,28.11088 26.70375,39.6072c11.49796,11.49753 24.70042,20.39869 39.60738,26.70348c15.43668,6.52925 31.60452,9.79387 48.5035,9.79387c16.89989,0 33.06776,-3.26462 48.50359,-9.79387c14.90908,-6.30599 28.11148,-15.20715 39.6072,-26.70348c11.49814,-11.49814 20.39929,-24.70054 26.70348,-39.6072c6.52864,-15.43584 9.79296,-31.60358 9.79296,-48.50323c0,-16.90001 -3.26432,-33.06785 -9.79296,-48.5035c-6.30539,-14.90856 -15.20655,-28.11105 -26.70348,-39.60747c-11.49693,-11.49687 -24.69933,-20.39809 -39.6072,-26.70366c-15.43523,-6.5287 -31.6031,-9.79306 -48.50359,-9.79306c-16.89989,0 -33.06773,3.26435 -48.5035,9.79306c-14.90802,6.30551 -28.11048,15.20676 -39.60738,26.70375zM153.41378,234.99986c0,-16.4914 3.18483,-32.26691 9.55448,-47.32654c6.15243,-14.54613 14.83821,-27.4288 26.05734,-38.648c11.21909,-11.21907 24.10176,-19.90485 38.648,-26.05734c15.0595,-6.36965 30.83502,-9.55448 47.32654,-9.55448c16.492,0 32.26767,3.18483 47.32699,9.55448c14.54584,6.15231 27.42845,14.83812 38.64782,26.05743c11.21816,11.21833 19.90391,24.10097 26.05725,38.64791c6.36935,15.05914 9.55402,30.83465 9.55402,47.32654c0,16.49056 -3.18467,32.2661 -9.55402,47.32663c-6.15213,14.54463 -14.83788,27.42724 -26.05725,38.64782c-11.21816,11.21877 -24.10077,19.90452 -38.64782,26.05725c-15.05932,6.36995 -30.83499,9.55493 -47.32699,9.55493c-16.4905,0 -32.26601,-3.18498 -47.32654,-9.55493c-14.54512,-6.15153 -27.42779,-14.83728 -38.648,-26.05725c-11.21913,-11.21877 -19.90491,-24.10137 -26.05734,-38.64782c-6.36965,-15.05932 -9.55448,-30.83487 -9.55448,-47.32663z"
          data-paper-data="{&quot;isBaseLogoContainer&quot;:true}"></path>
      </g>
    </g>
  </g>
</svg>